# xmcd
#
# Track frame offsets: 
#        150
#        13376
#        26192
#        37836
#        51383
#        65763
#        79456
#        90910
#        102557
#        114238
#        127925
#        140320
#        153371
#        166478
#        180536
#        194263
#        206815
#        221012
#        234535
#        248042
#
# Disc length: 3508 seconds
#
# Revision: 0
# Processed by: cddbd v1.5.2PL0 Copyright (c) Steve Scherf et al.
# Submitted via: ExactAudioCopy v0.99pb5
#
DISCID=1b0db214
DTITLE=Various Artist - Simply Blues
DYEAR=2011
DGENRE=Blues
TTITLE0=Howlin' Wolf - Moanin' at midnight
TTITLE1=Big Mama Thornton - Hound Dog
TTITLE2=Elmore James - Shake your Moneymaker
TTITLE3=Muddy Waters - Rollin' and Tumblin'  Pt1
TTITLE4=Bessie Smith - St. Louis Blues
TTITLE5=B.B. King - Three O'Clock Blues
TTITLE6=Lttle Walter - My Babe
TTITLE7=Sonny Boy Williamson - Don't start me talkin'
TTITLE8=Blind Willie McTell - Statesboro Blues
TTITLE9=T-Bone Walker - Call it Stormy Monday (But Tuesday is just as 
TTITLE9=Bad)
TTITLE10=Jon Lee Hooker - Crawlin' Kingsnake
TTITLE11=Arthur 'Big Boy' Crudup - That's all right
TTITLE12=Ruth Brown - Mama he treats your daughter mean
TTITLE13=Charley Patton - High Water everywhere
TTITLE14=Memphis Minnie - Me and my Chauffeur blues
TTITLE15=Jimmy Reed  - Bright Lights, Big City
TTITLE16=Leadbelly - Midnight Special
TTITLE17=Guitar Slim - The Things that I used to do
TTITLE18=Bobby'Blue' Bland - Farther Up the Road
TTITLE19=Blind Willie Johnson - Dark was the Night, Cold was the Groun
TTITLE19=d
EXTD=
EXTT0=
EXTT1=
EXTT2=
EXTT3=
EXTT4=
EXTT5=
EXTT6=
EXTT7=
EXTT8=
EXTT9=
EXTT10=
EXTT11=
EXTT12=
EXTT13=
EXTT14=
EXTT15=
EXTT16=
EXTT17=
EXTT18=
EXTT19=
PLAYORDER=
